<svg width="31" height="28" viewBox="0 0 31 28" fill="none" xmlns="http://www.w3.org/2000/svg">
<path d="M29.467 10.767L25.118 3.23299C23.9629 1.22969 21.8259 0 19.5157 0H17.604C18.4934 1.80124 25.3548 13.6421 25.3779 13.7229L23.8993 16.3093C20.7574 10.8767 17.6848 5.39217 14.462 0.00577355H8.57096C11.0776 4.64742 13.8383 9.15629 16.4257 13.7575C18.0545 16.7076 19.8795 19.5538 21.4101 22.5559H18.5281C14.4158 15.5126 10.4249 8.40578 6.28383 1.3798L3.32673 6.50639C4.81106 9.41031 6.65347 12.1295 8.12046 15.045H5.21535C4.03713 13.1052 2.99752 11.0845 1.79043 9.16784L0.866337 10.767C-0.288779 12.7703 -0.288779 15.2297 0.866337 17.233L5.20957 24.767C6.36469 26.7703 8.50165 28 10.8119 28H12.533C11.4241 25.3617 9.57013 23.0928 8.47277 20.4487C9.36221 20.4082 10.2516 20.414 11.1469 20.4082C12.868 22.8099 14.0866 25.5233 15.6807 28H19.5215C21.8317 28 23.9686 26.7703 25.1238 24.767L29.467 17.233C30.6221 15.2355 30.6221 12.7703 29.467 10.767Z" fill="#262338"/>
</svg>
